<?xml version="1.0" encoding="UTF-8"?>
<!DOCTYPE svg PUBLIC "-//W3C//DTD SVG 1.1//EN" "http://www.w3.org/Graphics/SVG/1.1/DTD/svg11.dtd">
<!-- Creator: CorelDRAW -->
<svg xmlns="http://www.w3.org/2000/svg" xml:space="preserve" width="66.1394mm" height="66.1394mm" version="1.1" style="shape-rendering:geometricPrecision; text-rendering:geometricPrecision; image-rendering:optimizeQuality; fill-rule:evenodd; clip-rule:evenodd"
viewBox="0 0 6599.71 6599.71"
 xmlns:xlink="http://www.w3.org/1999/xlink"
 xmlns:xodm="http://www.corel.com/coreldraw/odm/2003">
 <defs>
  <style type="text/css">
   <![CDATA[
    .fil1 {fill:#128F81}
    .fil0 {fill:#E2F0EE}
   ]]>
  </style>
 </defs>
 <g id="Layer_x0020_1">
  <metadata id="CorelCorpID_0Corel-Layer"/>
  <g id="_1171700848">
   <rect class="fil0" width="6599.71" height="6599.71"/>
   <g>
    <path class="fil1" d="M4501.13 1712.44c649.73,0 1176.49,526.75 1176.49,1176.47 0,649.75 -526.76,1176.49 -1176.49,1176.49 -46.51,0 -92.35,-2.74 -137.46,-8 -48.15,-5.65 -104.35,-19.55 -151.54,-19.89 -294.14,-2.29 -761.76,373.76 -684.84,53.59 85.8,-357.03 109.48,-389.63 71.87,-446.93 -171.32,-204.35 -274.51,-467.74 -274.51,-755.27 0,-649.72 526.75,-1176.47 1176.49,-1176.47zm-1977.74 2167.2c26.12,108.51 -72.38,220.98 -127.78,263.27 -422.35,322.35 -735.99,-218.54 -966.16,137.04 -118.81,183.53 -75.23,429.92 190.64,549.62 629.27,283.27 1456.98,-106.3 1572.53,-833.13 14,-88.1 20.7,-193.01 23.02,-302.86 6.11,-286.22 -6.58,-581.06 -16.39,-870.74 -6.8,-200.06 -5.89,-263.59 -80.77,-452.66 -23.81,-60.11 -94.25,-179.89 -133.74,-231.99 -69.15,-91.16 -160.88,-178.02 -243.75,-242.69 -28.05,-21.9 -58.79,-42.75 -91.73,-62.28 -87.02,-51.53 -189.62,-93.76 -299.61,-121.21 -145.2,-36.21 -296.69,-44.23 -444.82,-23.5 -198.13,27.8 -382.65,106.1 -540.56,228.89 -269.06,209.13 -442.17,535.83 -442.17,902.98 0,170.6 37.43,332.42 104.44,477.82 100.32,225.06 270.05,420.78 493.96,542.78 286.74,156.26 575.48,167.36 885.66,70.77 26.39,-8.2 52.38,-17.38 77.91,-27.44 14.23,-2.79 27.44,-4.49 39.34,-4.68zm-458.19 -1550.57c271.33,0 491.32,219.99 491.32,491.32 0,271.33 -220,491.31 -491.32,491.31 -271.33,0 -491.32,-219.98 -491.32,-491.31 0,-271.33 219.99,-491.32 491.32,-491.32zm2435.93 37.41c288.53,0 522.45,233.93 522.45,522.43 0,288.54 -233.93,522.45 -522.45,522.45 -288.53,0 -522.44,-233.92 -522.44,-522.45 0,-288.51 233.92,-522.43 522.44,-522.43zm0 -309.45c459.42,0 831.89,372.48 831.89,831.89 0,459.44 -372.47,831.91 -831.89,831.91 -459.42,0 -831.9,-372.47 -831.9,-831.91 0,-459.41 372.48,-831.89 831.9,-831.89z"/>
   </g>
  </g>
 </g>
</svg>
