<?xml version="1.0" encoding="utf-8"?>
<!-- Generator: Adobe Illustrator 28.1.0, SVG Export Plug-In . SVG Version: 6.00 Build 0)  -->
<svg version="1.1" id="Camada_1" xmlns="http://www.w3.org/2000/svg" xmlns:xlink="http://www.w3.org/1999/xlink" x="0px" y="0px"
	 viewBox="0 0 512 512" style="enable-background:new 0 0 512 512;" xml:space="preserve">
<style type="text/css">
	.st0{fill-rule:evenodd;clip-rule:evenodd;fill:#5B9DD6;}
</style>
<path class="st0" d="M143.09,246.79h-33.73l92.26-106.11L303.84,23.08l-18.45-10.67c-18.2-10.49-40.58-10.49-58.75,0L89.62,91.53
	c-1.26,0.72-2.48,1.5-3.66,2.31l-1,0.72c-0.83,0.59-1.66,1.19-2.45,1.83c-0.39,0.31-0.77,0.62-1.15,0.94
	c-0.72,0.6-1.42,1.21-2.11,1.84c-0.38,0.35-0.75,0.7-1.12,1.06c-0.67,0.64-1.31,1.3-1.94,1.98l-1.01,1.08
	c-0.7,0.78-1.37,1.59-2.03,2.41l-0.66,0.81c-0.86,1.12-1.68,2.26-2.46,3.43l-0.31,0.5c-0.66,1.02-1.29,2.06-1.89,3.12l-0.52,0.97
	c-0.51,0.94-1,1.9-1.45,2.87l-0.23,0.44l-0.16,0.41c-0.79,1.74-1.51,3.52-2.13,5.34l-0.09,0.3c-0.57,1.7-1.04,3.44-1.45,5.19
	l-0.24,1.02c-0.38,1.78-0.68,3.58-0.89,5.41c-0.05,0.38-0.08,0.76-0.12,1.13c-0.19,1.9-0.31,3.82-0.31,5.75v158.22
	c0,11.14,3.14,21.84,8.89,30.98c4.96,8.07,11.96,14.96,20.49,19.88l94.65,54.64L220,246.79H143.09L143.09,246.79z M442.87,111.39
	c5.75,9.14,8.89,19.84,8.89,30.98v158.22c0,1.93-0.13,3.85-0.31,5.75c-0.04,0.38-0.07,0.76-0.11,1.14
	c-0.22,1.82-0.51,3.63-0.89,5.41l-0.24,1.03c-0.41,1.75-0.88,3.49-1.45,5.19l-0.1,0.3c-0.61,1.82-1.34,3.59-2.12,5.34l-0.17,0.41
	l-0.23,0.44c-0.46,0.97-0.94,1.92-1.45,2.86l-0.52,0.97c-0.6,1.06-1.23,2.1-1.89,3.12l-0.31,0.5c-0.78,1.17-1.6,2.32-2.46,3.44
	l-0.66,0.81c-0.66,0.82-1.33,1.63-2.03,2.41l-1,1.07c-0.63,0.68-1.28,1.34-1.95,1.98c-0.37,0.36-0.75,0.71-1.12,1.06
	c-0.69,0.63-1.39,1.24-2.1,1.84c-0.38,0.32-0.76,0.63-1.15,0.94c-0.8,0.63-1.62,1.24-2.45,1.83l-1,0.72c-1.19,0.8-2.4,1.58-3.66,2.3
	l-15.02,8.68l0.24,147.34l-100.97-89.17l-21.26,12.28c-18.16,10.49-40.54,10.49-58.75,0l-18.45-10.67l102.22-117.6l92.26-106.11H292
	l35.72-159.33l94.66,54.64C430.91,96.43,437.91,103.32,442.87,111.39z"/>
</svg>
