<?xml version="1.0" encoding="utf-8"?>
<!-- Generator: Adobe Illustrator 28.1.0, SVG Export Plug-In . SVG Version: 6.00 Build 0)  -->
<svg version="1.1" id="Camada_1" xmlns="http://www.w3.org/2000/svg" xmlns:xlink="http://www.w3.org/1999/xlink" x="0px" y="0px"
	 viewBox="0 0 1200 450" style="enable-background:new 0 0 1200 450;" xml:space="preserve">
<style type="text/css">
	.st0{fill-rule:evenodd;clip-rule:evenodd;fill:#5B9DD6;}
	.st1{fill-rule:evenodd;clip-rule:evenodd;fill:#FFFFFF;}
</style>
<g>
	<path class="st0" d="M60.85,160.25H42.23l50.94-58.58l56.44-64.93l-10.19-5.89c-10.05-5.79-22.41-5.79-32.43,0L31.33,74.53
		c-0.7,0.4-1.37,0.83-2.02,1.27l-0.55,0.4c-0.46,0.33-0.92,0.66-1.35,1.01c-0.21,0.17-0.42,0.34-0.63,0.52
		c-0.4,0.33-0.79,0.67-1.16,1.02c-0.21,0.19-0.42,0.39-0.62,0.58c-0.37,0.36-0.73,0.72-1.07,1.09l-0.56,0.6
		c-0.39,0.43-0.76,0.88-1.12,1.33l-0.36,0.45c-0.47,0.62-0.93,1.25-1.36,1.9l-0.17,0.28c-0.37,0.56-0.71,1.14-1.04,1.72l-0.29,0.54
		c-0.28,0.52-0.55,1.05-0.8,1.58l-0.13,0.24L18,89.28c-0.43,0.96-0.83,1.94-1.17,2.95l-0.05,0.17c-0.31,0.94-0.57,1.9-0.8,2.87
		l-0.13,0.56c-0.21,0.98-0.37,1.98-0.49,2.99c-0.02,0.21-0.04,0.42-0.06,0.63c-0.1,1.05-0.17,2.11-0.17,3.18v87.35
		c0,6.15,1.74,12.06,4.91,17.1c2.74,4.45,6.6,8.26,11.31,10.98l52.26,30.17l19.73-87.96H60.85L60.85,160.25z M226.36,85.5
		c3.17,5.05,4.91,10.96,4.91,17.11v87.35c0,1.07-0.07,2.13-0.17,3.17c-0.02,0.21-0.04,0.42-0.06,0.63c-0.12,1-0.28,2-0.49,2.99
		l-0.13,0.57c-0.23,0.97-0.49,1.93-0.8,2.86l-0.05,0.17c-0.34,1-0.74,1.98-1.17,2.95l-0.09,0.22l-0.12,0.25
		c-0.25,0.53-0.52,1.06-0.8,1.58l-0.29,0.54c-0.33,0.59-0.68,1.16-1.04,1.72l-0.17,0.28c-0.43,0.65-0.88,1.28-1.36,1.9l-0.36,0.45
		c-0.36,0.45-0.73,0.9-1.12,1.33l-0.55,0.59c-0.35,0.37-0.71,0.74-1.07,1.09c-0.2,0.2-0.41,0.39-0.62,0.59
		c-0.38,0.35-0.77,0.68-1.16,1.01c-0.21,0.18-0.42,0.35-0.63,0.52c-0.44,0.35-0.9,0.68-1.36,1.01l-0.55,0.4
		c-0.66,0.44-1.33,0.87-2.02,1.27l-8.3,4.79l0.13,81.35l-55.75-49.23l-11.74,6.78c-10.03,5.79-22.38,5.79-32.43,0l-10.19-5.89
		l56.44-64.93l50.94-58.58h-61.09l19.72-87.97l52.26,30.17C219.76,77.24,223.63,81.04,226.36,85.5z"/>
	<path class="st1" d="M380.88,424.55c2.85,0,4.4-1.55,4.4-4.66V390.4c0-2.85-1.55-4.4-4.4-4.4H301.2l79.94-116.94
		c1.29-1.55,1.81-3.62,1.81-5.69v-19.15c0-3.1-1.55-4.66-4.66-4.66h-124.7c-2.85,0-4.66,1.55-4.66,4.66v29.24
		c0,2.85,1.81,4.66,4.66,4.66h72.96l-80.98,115.91c-1.04,1.81-1.81,3.88-1.81,5.95v19.92c0,3.1,1.81,4.66,4.66,4.66H380.88
		L380.88,424.55z M424.01,424.55h-34.67c-3.36,0-4.66-2.07-3.62-5.17l60.02-176.19c1.03-2.33,2.59-3.62,4.92-3.62h39.32
		c2.33,0,4.14,1.29,4.92,3.62l60.02,176.19c1.29,3.1-0.26,5.17-3.62,5.17h-34.41c-2.59,0-4.66-1.29-5.43-3.88l-9.57-31.56h-62.87
		l-9.83,31.56C428.41,423.25,426.34,424.55,424.01,424.55L424.01,424.55z M469.81,284.84c-5.17,17.33-13.2,45.53-20.18,68.3h41.65
		c-7.24-22.77-15.26-50.97-20.44-68.3H469.81L469.81,284.84z M569.34,239.56c-2.85,0-4.4,1.55-4.4,4.66v175.67
		c0,3.1,1.55,4.66,4.4,4.66h32.6c2.85,0,4.4-1.55,4.4-4.66v-49.16h31.56c40.62,0,66.23-25.36,66.23-65.71
		c0-40.1-25.61-65.46-66.23-65.46H569.34L569.34,239.56z M606.34,332.18v-54.33h25.87c19.66,0,29.23,9.06,29.23,27.17
		c0,18.37-9.57,27.16-29.23,27.16H606.34L606.34,332.18z M748.56,424.55c2.33,0,3.62-1.29,3.62-3.88v-59.25
		c0-21.99-1.03-48.9-2.33-71.15l0.78-0.26c7.24,15.26,18.11,35.44,27.68,50.97l48.9,80.98c1.03,1.81,2.59,2.59,4.4,2.59h26.13
		c2.59,0,3.88-1.29,3.88-3.88V243.44c0-2.59-1.29-3.88-3.88-3.88h-23.28c-2.59,0-3.88,1.29-3.88,3.88v63.13
		c0,21.73,0.78,48.12,2.33,70.11l-0.78,0.26c-7.24-13.97-17.08-31.31-25.87-46.83l-50.45-87.96c-1.04-1.55-2.59-2.59-4.66-2.59
		h-26.13c-2.33,0-3.62,1.29-3.62,3.88v177.22c0,2.59,1.29,3.88,3.62,3.88H748.56L748.56,424.55z M902.17,424.55
		c2.07,0,3.62-1.03,4.4-3.1l12.68-39.07h70.89l12.68,39.07c0.52,2.07,2.33,3.1,4.4,3.1h25.35c2.59,0,3.88-1.55,3.1-4.4
		l-62.09-177.48c-0.78-2.07-2.07-3.1-4.14-3.1h-29.49c-2.07,0-3.36,1.04-4.14,3.1l-62.09,177.48c-0.78,2.85,0.26,4.4,3.1,4.4H902.17
		L902.17,424.55z M954.17,273.71h1.04l26.13,80.46h-53.3L954.17,273.71L954.17,273.71z M1180.75,424.55c2.85,0,4.14-1.81,2.33-4.66
		l-47.34-66.23c27.17-7.24,42.95-26.65,42.95-55.11c0-37-24.84-58.99-67.27-58.99h-60.02c-2.33,0-3.62,1.29-3.62,3.88v177.22
		c0,2.59,1.29,3.88,3.62,3.88h23.8c2.33,0,3.62-1.29,3.62-3.88v-63.64h23.03l45.27,64.94c1.03,1.81,2.59,2.59,4.4,2.59H1180.75
		L1180.75,424.55z M1111.41,268.28c24.06,0,35.44,9.57,35.44,30.53c0,20.7-11.38,30.27-35.44,30.27h-32.6v-60.8H1111.41z"/>
</g>
</svg>
