<?xml version="1.0" encoding="utf-8"?>
<!-- Generator: Adobe Illustrator 28.1.0, SVG Export Plug-In . SVG Version: 6.00 Build 0)  -->
<svg version="1.1" id="Camada_1" xmlns="http://www.w3.org/2000/svg" xmlns:xlink="http://www.w3.org/1999/xlink" x="0px" y="0px"
	 viewBox="0 0 2400 900" style="enable-background:new 0 0 2400 900;" xml:space="preserve">
<style type="text/css">
	.st0{fill-rule:evenodd;clip-rule:evenodd;fill:#5B9DD6;}
	.st1{fill-rule:evenodd;clip-rule:evenodd;fill:#FFFFFF;}
</style>
<g>
	<path class="st0" d="M113.49,315.56H75.92l102.75-118.17L292.51,66.42l-20.55-11.88c-20.27-11.69-45.19-11.69-65.42,0L53.95,142.66
		c-1.4,0.81-2.76,1.67-4.08,2.57l-1.11,0.8c-0.93,0.66-1.85,1.33-2.73,2.04c-0.43,0.34-0.86,0.7-1.28,1.05
		c-0.8,0.67-1.58,1.35-2.35,2.05c-0.42,0.39-0.84,0.78-1.25,1.18c-0.74,0.72-1.46,1.45-2.16,2.2l-1.12,1.21
		c-0.78,0.87-1.53,1.77-2.26,2.68l-0.73,0.9c-0.96,1.24-1.88,2.52-2.74,3.82l-0.35,0.56c-0.74,1.13-1.44,2.29-2.11,3.47l-0.58,1.08
		c-0.57,1.05-1.11,2.12-1.62,3.2l-0.25,0.49l-0.18,0.46c-0.87,1.94-1.68,3.91-2.37,5.94l-0.1,0.34c-0.63,1.9-1.15,3.83-1.61,5.78
		l-0.27,1.14c-0.42,1.98-0.76,3.99-0.99,6.02c-0.05,0.42-0.09,0.84-0.13,1.26c-0.21,2.12-0.35,4.25-0.35,6.41v176.2
		c0,12.4,3.5,24.32,9.9,34.5c5.53,8.99,13.31,16.66,22.82,22.14l105.41,60.85l39.79-177.43H113.49L113.49,315.56z M447.34,164.77
		c6.4,10.18,9.9,22.1,9.9,34.5v176.2c0,2.15-0.14,4.29-0.35,6.4c-0.04,0.42-0.08,0.84-0.13,1.27c-0.24,2.03-0.57,4.04-0.99,6.02
		l-0.27,1.14c-0.46,1.95-0.98,3.88-1.61,5.78l-0.11,0.34c-0.68,2.03-1.49,4-2.36,5.95l-0.18,0.45l-0.25,0.5
		c-0.51,1.08-1.05,2.14-1.62,3.19l-0.58,1.08c-0.66,1.18-1.37,2.34-2.11,3.47l-0.35,0.56c-0.87,1.31-1.78,2.58-2.74,3.83l-0.73,0.9
		c-0.73,0.91-1.48,1.81-2.26,2.69l-1.12,1.2c-0.7,0.75-1.42,1.49-2.17,2.21c-0.41,0.4-0.83,0.79-1.25,1.18
		c-0.77,0.7-1.55,1.38-2.34,2.05c-0.42,0.36-0.84,0.71-1.28,1.05c-0.89,0.71-1.81,1.38-2.73,2.04l-1.11,0.8
		c-1.32,0.89-2.68,1.76-4.08,2.57l-16.73,9.66l0.26,164.09l-112.44-99.3l-23.68,13.67c-20.23,11.68-45.15,11.68-65.42,0
		l-20.55-11.88L299.8,377.37l102.74-118.17H279.33l39.78-177.43l105.41,60.85C434.02,148.11,441.82,155.78,447.34,164.77z"/>
	<path class="st1" d="M759.01,848.65c5.74,0,8.87-3.13,8.87-9.39v-59.49c0-5.74-3.13-8.87-8.87-8.87H598.28l161.25-235.87
		c2.61-3.13,3.65-7.31,3.65-11.48v-38.62c0-6.26-3.13-9.39-9.39-9.39H502.26c-5.74,0-9.39,3.13-9.39,9.39v58.97
		c0,5.74,3.66,9.39,9.39,9.39h147.16L486.09,787.07c-2.09,3.65-3.65,7.83-3.65,12v40.18c0,6.26,3.65,9.39,9.39,9.39H759.01
		L759.01,848.65z M846.01,848.65h-69.93c-6.78,0-9.39-4.17-7.31-10.44l121.07-355.38c2.09-4.7,5.22-7.31,9.91-7.31h79.32
		c4.7,0,8.35,2.61,9.92,7.31l121.07,355.38c2.61,6.26-0.52,10.44-7.31,10.44h-69.41c-5.22,0-9.39-2.61-10.96-7.83l-19.31-63.66
		H876.28l-19.83,63.66C854.88,846.04,850.71,848.65,846.01,848.65L846.01,848.65z M938.38,566.85
		c-10.44,34.96-26.62,91.85-40.7,137.77h84.02c-14.61-45.92-30.79-102.81-41.23-137.77H938.38L938.38,566.85z M1139.14,475.53
		c-5.74,0-8.87,3.13-8.87,9.39v354.34c0,6.26,3.13,9.39,8.87,9.39h65.75c5.74,0,8.87-3.13,8.87-9.39v-99.15h63.67
		c81.93,0,133.59-51.14,133.59-132.55c0-80.89-51.66-132.03-133.59-132.03H1139.14L1139.14,475.53z M1213.76,662.35V552.76h52.19
		c39.66,0,58.97,18.27,58.97,54.79c0,37.05-19.31,54.79-58.97,54.79H1213.76L1213.76,662.35z M1500.63,848.65
		c4.7,0,7.31-2.61,7.31-7.83v-119.5c0-44.36-2.09-98.63-4.7-143.51l1.56-0.52c14.61,30.79,36.53,71.49,55.84,102.8l98.63,163.34
		c2.09,3.65,5.22,5.22,8.87,5.22h52.71c5.22,0,7.83-2.61,7.83-7.83V483.36c0-5.22-2.61-7.83-7.83-7.83h-46.97
		c-5.22,0-7.83,2.61-7.83,7.83v127.33c0,43.83,1.57,97.06,4.7,141.42l-1.57,0.52c-14.61-28.18-34.44-63.14-52.19-94.45
		l-101.76-177.43c-2.09-3.13-5.22-5.22-9.39-5.22h-52.71c-4.7,0-7.31,2.61-7.31,7.83v357.46c0,5.22,2.61,7.83,7.31,7.83H1500.63
		L1500.63,848.65z M1810.48,848.65c4.17,0,7.31-2.09,8.87-6.26l25.57-78.8h142.99l25.57,78.8c1.04,4.17,4.7,6.26,8.87,6.26h51.14
		c5.22,0,7.83-3.13,6.26-8.87l-125.24-357.99c-1.57-4.17-4.18-6.26-8.35-6.26h-59.49c-4.17,0-6.78,2.09-8.35,6.26l-125.24,357.99
		c-1.57,5.74,0.52,8.87,6.26,8.87H1810.48L1810.48,848.65z M1915.37,544.41h2.09l52.71,162.29h-107.5L1915.37,544.41L1915.37,544.41
		z M2372.39,848.65c5.74,0,8.35-3.65,4.7-9.39l-95.5-133.59c54.79-14.61,86.63-53.75,86.63-111.15
		c0-74.62-50.1-118.98-135.68-118.98h-121.07c-4.7,0-7.31,2.61-7.31,7.83v357.46c0,5.22,2.61,7.83,7.31,7.83h48.01
		c4.7,0,7.31-2.61,7.31-7.83V712.45h46.45l91.32,130.99c2.09,3.65,5.22,5.22,8.87,5.22H2372.39L2372.39,848.65z M2232.53,533.45
		c48.53,0,71.49,19.31,71.49,61.58c0,41.75-22.96,61.05-71.49,61.05h-65.75V533.45H2232.53z"/>
</g>
</svg>
