<?xml version="1.0" encoding="UTF-8"?>
<!DOCTYPE svg PUBLIC "-//W3C//DTD SVG 1.1//EN" "http://www.w3.org/Graphics/SVG/1.1/DTD/svg11.dtd">
<!-- Creator: CorelDRAW -->
<svg xmlns="http://www.w3.org/2000/svg" xml:space="preserve" width="100.899mm" height="100.899mm" version="1.1" style="shape-rendering:geometricPrecision; text-rendering:geometricPrecision; image-rendering:optimizeQuality; fill-rule:evenodd; clip-rule:evenodd"
viewBox="0 0 6002.89 6002.89"
 xmlns:xlink="http://www.w3.org/1999/xlink"
 xmlns:xodm="http://www.corel.com/coreldraw/odm/2003">
 <defs>
  <style type="text/css">
   <![CDATA[
    .fil1 {fill:#FEFEFE}
    .fil0 {fill:#205874}
   ]]>
  </style>
 </defs>
 <g id="Layer_x0020_1">
  <metadata id="CorelCorpID_0Corel-Layer"/>
  <g id="_1811192592">
   <rect class="fil0" x="-0" y="-0" width="6002.89" height="6002.89"/>
   <g>
    <path class="fil1" d="M1910.13 4297.77l-368.91 0 -0.73 0 -50.97 0c-8.42,-3.33 -7.38,-14.23 -8.11,-45.64l3.39 -1082.19 -1053.96 -1464.84 588.29 0c61.12,0 80.08,2.42 118.58,56.23l587.96 821.98 587.97 -821.98c38.5,-53.81 57.46,-56.23 118.58,-56.23l588.29 0 -1053.96 1464.84 3.39 1082.19c-0.73,31.41 0.3,42.32 -8.1,45.64l-50.97 0 -0.73 0z"/>
    <path class="fil1" d="M3043.44 2401.49l2.15 1850.65c0.73,31.41 -0.32,42.31 8.1,45.64l50.97 0 0.73 0 369.58 0 0.73 0 50.96 0c8.41,-3.33 7.38,-14.23 8.11,-45.64l0 -2466.36 0 -32.81c-1.32,-33.63 -9.88,-48.55 -52.72,-47.83l-258.7 4.32 -13.64 0.22c-29.19,0.49 -28.1,9.22 -44,31.94l-401.08 572.9c-19.52,27.9 -13.62,55.29 24.21,54.77l222.97 -3.11c35.57,-0.51 31.5,2.08 31.62,35.31zm659.87 1196.4c0,233.82 41.78,429.25 290.58,599.88 90.66,62.17 202.18,100 312.45,100l662.68 0c110.27,0 221.78,-37.83 312.46,-100 248.8,-170.64 290.58,-366.07 290.58,-599.88l0 -1192.89c0,-233.82 -41.78,-429.25 -290.58,-599.88 -90.67,-62.18 -202.18,-100.01 -312.46,-100.01l-662.68 0c-110.27,0 -221.79,37.83 -312.45,100.01 -248.8,170.63 -290.58,366.06 -290.58,599.88l0 1192.89zm1384.49 -69.16c0,92.45 -28.07,174.63 -76.28,225.05 -49.56,51.86 -93.03,72.01 -161.68,79.23l0 0.61 -424.31 0 0 -0.61c-68.65,-7.22 -112.12,-27.38 -161.68,-79.23 -48.21,-50.42 -76.28,-132.6 -76.28,-225.05l0 -1054.58c0,-92.45 28.07,-174.63 76.28,-225.06 49.56,-51.84 93.03,-72.01 161.68,-79.22l0 -0.6 424.31 0 0 0.6c68.65,7.22 112.12,27.38 161.68,79.22 48.21,50.43 76.28,132.61 76.28,225.06l0 1054.58z"/>
   </g>
  </g>
 </g>
</svg>
