<?xml version="1.0" encoding="utf-8"?>
<!-- Generator: Adobe Illustrator 28.1.0, SVG Export Plug-In . SVG Version: 6.00 Build 0)  -->
<svg version="1.1" id="Camada_1" xmlns="http://www.w3.org/2000/svg" xmlns:xlink="http://www.w3.org/1999/xlink" x="0px" y="0px"
	 viewBox="0 0 2400 600" style="enable-background:new 0 0 2400 600;" xml:space="preserve">
<style type="text/css">
	.st0{fill-rule:evenodd;clip-rule:evenodd;fill:#5B9DD6;}
	.st1{fill-rule:evenodd;clip-rule:evenodd;fill:#FFFFFF;}
</style>
<g>
	<path class="st0" d="M112.73,289.91H75.17l102.75-118.17L291.75,40.77L271.2,28.89c-20.27-11.69-45.19-11.69-65.42,0L53.19,117.01
		c-1.4,0.81-2.76,1.67-4.08,2.57l-1.11,0.8c-0.93,0.66-1.85,1.33-2.73,2.04c-0.43,0.34-0.86,0.7-1.28,1.05
		c-0.8,0.67-1.58,1.35-2.35,2.05c-0.42,0.39-0.84,0.78-1.25,1.18c-0.74,0.72-1.46,1.45-2.16,2.2l-1.12,1.21
		c-0.78,0.87-1.53,1.77-2.26,2.68l-0.73,0.9c-0.96,1.24-1.88,2.52-2.74,3.82l-0.35,0.56c-0.74,1.13-1.44,2.29-2.11,3.47l-0.58,1.08
		c-0.57,1.05-1.11,2.12-1.62,3.2l-0.25,0.49l-0.18,0.46c-0.87,1.94-1.68,3.91-2.37,5.94l-0.1,0.34c-0.63,1.9-1.15,3.83-1.61,5.78
		l-0.27,1.14c-0.42,1.98-0.76,3.99-0.99,6.02c-0.05,0.42-0.09,0.84-0.13,1.26c-0.21,2.12-0.35,4.25-0.35,6.41v176.2
		c0,12.4,3.5,24.32,9.9,34.5c5.53,8.99,13.31,16.66,22.82,22.14l105.41,60.85l39.79-177.43H112.73L112.73,289.91z M446.59,139.11
		c6.4,10.18,9.9,22.1,9.9,34.5v176.2c0,2.15-0.14,4.29-0.35,6.4c-0.04,0.42-0.08,0.84-0.13,1.27c-0.24,2.03-0.57,4.04-0.99,6.02
		l-0.27,1.14c-0.46,1.95-0.98,3.88-1.61,5.78l-0.11,0.34c-0.68,2.03-1.49,4-2.36,5.95l-0.18,0.45l-0.25,0.5
		c-0.51,1.08-1.05,2.14-1.62,3.19l-0.58,1.08c-0.66,1.18-1.37,2.34-2.11,3.47l-0.35,0.56c-0.87,1.31-1.78,2.58-2.74,3.83l-0.73,0.9
		c-0.73,0.91-1.48,1.81-2.26,2.69l-1.12,1.2c-0.7,0.75-1.42,1.49-2.17,2.21c-0.41,0.4-0.83,0.79-1.25,1.18
		c-0.77,0.7-1.55,1.38-2.34,2.05c-0.42,0.36-0.84,0.71-1.28,1.05c-0.89,0.71-1.81,1.38-2.73,2.04l-1.11,0.8
		c-1.32,0.89-2.68,1.76-4.08,2.57l-16.73,9.66l0.26,164.09l-112.44-99.3l-23.68,13.67c-20.23,11.68-45.15,11.68-65.42,0
		l-20.55-11.88l113.84-130.96l102.74-118.17H278.57l39.78-177.43l105.41,60.85C433.27,122.46,441.06,130.13,446.59,139.11z"/>
	<path class="st1" d="M817.17,581.96c5.53,0,8.55-3.02,8.55-9.05v-57.33c0-5.53-3.02-8.55-8.55-8.55H662.28l155.39-227.3
		c2.51-3.02,3.52-7.04,3.52-11.06v-37.21c0-6.03-3.02-9.05-9.05-9.05H569.76c-5.53,0-9.05,3.02-9.05,9.05v56.82
		c0,5.53,3.52,9.05,9.05,9.05h141.81l-157.4,225.28c-2.01,3.52-3.52,7.54-3.52,11.57v38.72c0,6.03,3.52,9.05,9.05,9.05H817.17
		L817.17,581.96z M901,581.96h-67.39c-6.54,0-9.05-4.02-7.04-10.06l116.67-342.45c2.01-4.53,5.03-7.04,9.55-7.04h76.44
		c4.53,0,8.05,2.51,9.55,7.04l116.67,342.45c2.51,6.04-0.5,10.06-7.04,10.06h-66.88c-5.03,0-9.05-2.51-10.56-7.54l-18.61-61.35
		h-122.2l-19.11,61.35C909.55,579.45,905.53,581.96,901,581.96L901,581.96z M990.01,310.41c-10.06,33.69-25.65,88.51-39.22,132.76
		h80.96c-14.08-44.25-29.67-99.07-39.73-132.76H990.01L990.01,310.41z M1183.47,222.41c-5.53,0-8.55,3.02-8.55,9.05v341.45
		c0,6.03,3.02,9.05,8.55,9.05h63.36c5.53,0,8.55-3.02,8.55-9.05v-95.54h61.35c78.95,0,128.73-49.28,128.73-127.73
		c0-77.94-49.78-127.23-128.73-127.23H1183.47L1183.47,222.41z M1255.38,402.44v-105.6h50.29c38.22,0,56.82,17.6,56.82,52.8
		c0,35.7-18.61,52.8-56.82,52.8H1255.38L1255.38,402.44z M1531.81,581.96c4.53,0,7.04-2.51,7.04-7.54V459.26
		c0-42.74-2.01-95.04-4.53-138.29l1.51-0.5c14.08,29.67,35.2,68.89,53.81,99.06l95.04,157.4c2.01,3.52,5.03,5.03,8.55,5.03h50.79
		c5.03,0,7.54-2.51,7.54-7.54V229.95c0-5.03-2.51-7.54-7.54-7.54h-45.26c-5.03,0-7.54,2.51-7.54,7.54v122.7
		c0,42.24,1.51,93.53,4.53,136.28l-1.51,0.5c-14.08-27.16-33.19-60.85-50.29-91.02l-98.06-170.98c-2.01-3.02-5.03-5.03-9.05-5.03
		h-50.79c-4.53,0-7.04,2.51-7.04,7.54v344.46c0,5.03,2.51,7.54,7.04,7.54H1531.81L1531.81,581.96z M1830.4,581.96
		c4.02,0,7.04-2.01,8.55-6.03l24.64-75.93h137.79l24.64,75.93c1.01,4.02,4.53,6.03,8.55,6.03h49.28c5.03,0,7.54-3.02,6.03-8.55
		l-120.69-344.97c-1.51-4.02-4.02-6.04-8.05-6.04h-57.33c-4.02,0-6.54,2.01-8.05,6.04l-120.69,344.97c-1.51,5.53,0.5,8.55,6.04,8.55
		H1830.4L1830.4,581.96z M1931.47,288.79h2.01l50.79,156.39h-103.59L1931.47,288.79L1931.47,288.79z M2371.86,581.96
		c5.53,0,8.05-3.52,4.53-9.05l-92.02-128.74c52.8-14.08,83.48-51.79,83.48-107.11c0-71.91-48.28-114.65-130.74-114.65h-116.67
		c-4.53,0-7.04,2.51-7.04,7.54v344.46c0,5.03,2.51,7.54,7.04,7.54h46.26c4.53,0,7.04-2.51,7.04-7.54V450.71h44.76l88,126.22
		c2.01,3.52,5.03,5.03,8.55,5.03H2371.86L2371.86,581.96z M2237.1,278.23c46.77,0,68.89,18.61,68.89,59.34
		c0,40.23-22.13,58.83-68.89,58.83h-63.36V278.23H2237.1z"/>
</g>
</svg>
