<?xml version="1.0" encoding="UTF-8"?>
<!DOCTYPE svg PUBLIC "-//W3C//DTD SVG 1.1//EN" "http://www.w3.org/Graphics/SVG/1.1/DTD/svg11.dtd">
<!-- Creator: CorelDRAW -->
<svg xmlns="http://www.w3.org/2000/svg" xml:space="preserve" width="103.201mm" height="42.7862mm" version="1.1" style="shape-rendering:geometricPrecision; text-rendering:geometricPrecision; image-rendering:optimizeQuality; fill-rule:evenodd; clip-rule:evenodd"
viewBox="0 0 10305.9 4272.72"
 xmlns:xlink="http://www.w3.org/1999/xlink"
 xmlns:xodm="http://www.corel.com/coreldraw/odm/2003">
 <defs>
  <style type="text/css">
   <![CDATA[
    .fil0 {fill:#128F81}
    .fil1 {fill:#23655A}
   ]]>
  </style>
 </defs>
 <g id="Layer_x0020_1">
  <metadata id="CorelCorpID_0Corel-Layer"/>
  <g id="_1393858624">
   <path class="fil0" d="M9128.5 1060.24c650.23,0 1177.4,527.16 1177.4,1177.38 0,650.25 -527.17,1177.4 -1177.4,1177.4 -46.55,0 -92.42,-2.75 -137.57,-8.01 -48.18,-5.65 -104.43,-19.56 -151.66,-19.9 -294.36,-2.29 -762.35,374.05 -685.37,53.64 85.87,-357.31 109.57,-389.93 71.92,-447.27 -171.45,-204.51 -274.72,-468.1 -274.72,-755.86 0,-650.22 527.16,-1177.38 1177.4,-1177.38zm-1979.27 2168.87c26.14,108.59 -72.44,221.15 -127.88,263.48 -422.68,322.6 -736.56,-218.71 -966.9,137.15 -118.91,183.68 -75.29,430.26 190.79,550.05 629.76,283.49 1458.11,-106.38 1573.75,-833.78 14.01,-88.17 20.71,-193.16 23.04,-303.09 6.11,-286.44 -6.58,-581.51 -16.41,-871.42 -6.8,-200.21 -5.89,-263.8 -80.83,-453.01 -23.83,-60.16 -94.32,-180.03 -133.85,-232.17 -69.2,-91.23 -161.01,-178.15 -243.94,-242.87 -28.07,-21.92 -58.84,-42.78 -91.8,-62.32 -87.09,-51.57 -189.77,-93.83 -299.85,-121.3 -145.31,-36.24 -296.92,-44.27 -445.16,-23.52 -198.29,27.82 -382.95,106.18 -540.98,229.06 -269.27,209.29 -442.51,536.25 -442.51,903.68 0,170.73 37.46,332.68 104.53,478.19 100.4,225.24 270.26,421.11 494.34,543.2 286.96,156.38 575.92,167.49 886.35,70.82 26.41,-8.21 52.42,-17.4 77.97,-27.46 14.24,-2.8 27.46,-4.49 39.37,-4.68zm-458.55 -1551.77c271.53,0 491.7,220.16 491.7,491.7 0,271.54 -220.17,491.69 -491.7,491.69 -271.54,0 -491.7,-220.15 -491.7,-491.69 0,-271.54 220.16,-491.7 491.7,-491.7zm2437.81 37.44c288.75,0 522.86,234.11 522.86,522.84 0,288.76 -234.11,522.86 -522.86,522.86 -288.75,0 -522.85,-234.1 -522.85,-522.86 0,-288.73 234.1,-522.84 522.85,-522.84zm0 -309.69c459.77,0 832.53,372.76 832.53,832.53 0,459.79 -372.75,832.55 -832.53,832.55 -459.77,0 -832.54,-372.75 -832.54,-832.55 0,-459.76 372.76,-832.53 832.54,-832.53z"/>
   <path class="fil1" d="M317.74 941.95l1448.73 0c95.85,0 63.81,1.59 181.22,0.06 76.47,-0.99 153.51,25.24 214.86,79.7 130.69,115.99 142.7,317.85 26.68,448.54l-385.24 434.03 -745.96 840.39 893.22 0c174.75,0 317.74,142.99 317.74,317.74 0,174.76 -142.99,317.74 -317.74,317.74l-271.9 0 -1211.41 0 -175.33 0 -42.86 0c-120.13,0 -170.26,-37.66 -220.15,-145.33 -51.61,-111.36 -36.21,-248.03 50.14,-345.28l385.24 -434.03 779.41 -878.08 -926.66 0c-174.76,0 -317.74,-142.98 -317.74,-317.74 0,-174.76 142.98,-317.74 317.74,-317.74zm4426.66 2166.47l0 -758.34 0 -226.3c0,-121.58 -58.71,-278.22 -162.15,-351.75 -177.44,-126.11 -383.62,-97.46 -518.16,14.7 -108.89,90.73 -130.42,167.09 -133.93,264.32l0 3.34 0 121.97 0 173.72 0 758.34c0,172.1 -140.81,312.9 -312.9,312.9 -172.09,0 -312.92,-140.8 -312.92,-312.9l0 -758.34 0 -295.69 0 -758.35c0,-172.09 140.83,-312.9 312.92,-312.9 2.33,0 4.65,0.04 6.97,0.09l2.37 0.06 5.34 0.21 1.36 0.05 0.7 0.04 6.74 0.44 1.29 0.1 6.53 0.59 0.89 0.09 7.23 0.83 1.14 0.15 5.83 0.82 1.88 0.29 6.61 1.1 0.33 0.06 0.3 0.06 6.71 1.3 1.44 0.29 6 1.32 0.79 0.17 0.34 0.08c2.16,0.5 4.29,1.04 6.44,1.59l2.08 0.55 4.94 1.34 1.5 0.42 6.32 1.89 2.41 0.77 3.59 1.17 3.44 1.16 0.18 0.06 5.01 1.79 3.56 1.33 2.37 0.91 3.14 1.24 3.18 1.3 6.04 2.59 1.85 0.81 3.33 1.51 2.9 1.36 2.93 1.4 4.72 2.35 0.11 0.06 3.61 1.87 2.12 1.12 3.39 1.83 0.11 0.06 4.58 2.58 3.37 1.97 1.89 1.12 3.61 2.19 1.14 0.72c2.33,1.45 4.64,2.93 6.93,4.43l1.28 0.84 3.88 2.64 0.51 0.36c2.74,1.9 5.45,3.83 8.13,5.81l0.03 0.02c33.7,24.93 62.28,56.44 83.78,92.59l0.05 0.09c2.68,4.5 5.25,9.07 7.7,13.72 104.21,-38.98 502.52,-256.24 954.88,-20.37 110.63,57.7 190.05,122.61 244.78,176.42 156.35,153.77 224.17,271.67 257.71,495.75 13.3,88.75 18.7,186.34 18.7,297.85l0 249.66 0 758.34c0,172.1 -140.81,312.9 -312.9,312.9 -172.09,0 -312.92,-140.8 -312.92,-312.9zm-2300.6 -41.16l0 -758.34 0 -295.69 0 -758.35c0,-172.09 140.83,-312.9 312.92,-312.9 172.09,0 312.9,140.81 312.9,312.9l0 758.35 0 295.69 0 758.34c0,172.1 -140.81,312.9 -312.9,312.9 -172.09,0 -312.92,-140.8 -312.92,-312.9zm312.92 -3067.25c172.8,0 312.9,140.1 312.9,312.9 0,172.8 -140.1,312.9 -312.9,312.9 -172.8,0 -312.9,-140.1 -312.9,-312.9 0,-172.8 140.1,-312.9 312.9,-312.9z"/>
  </g>
 </g>
</svg>
