<?xml version="1.0" encoding="UTF-8"?>
<!DOCTYPE svg PUBLIC "-//W3C//DTD SVG 1.1//EN" "http://www.w3.org/Graphics/SVG/1.1/DTD/svg11.dtd">
<!-- Creator: CorelDRAW -->
<svg xmlns="http://www.w3.org/2000/svg" xml:space="preserve" width="128.787mm" height="40.1731mm" version="1.1" style="shape-rendering:geometricPrecision; text-rendering:geometricPrecision; image-rendering:optimizeQuality; fill-rule:evenodd; clip-rule:evenodd"
viewBox="0 0 13765.78 4294.01"
 xmlns:xlink="http://www.w3.org/1999/xlink"
 xmlns:xodm="http://www.corel.com/coreldraw/odm/2003">
 <defs>
  <style type="text/css">
   <![CDATA[
    .fil0 {fill:#9D9E9E}
    .fil1 {fill:#8C6620;fill-rule:nonzero}
    .fil2 {fill:#C3922E;fill-rule:nonzero}
   ]]>
  </style>
 </defs>
 <g id="Layer_x0020_1">
  <metadata id="CorelCorpID_0Corel-Layer"/>
  <g id="_1238378128">
   <g>
    <polygon class="fil0" points="2955.27,513.08 2735.72,513.08 2171.71,1495.02 1607.7,513.08 1388.21,513.08 2171.74,1873.84 "/>
    <polygon class="fil1" points="2171.74,1873.84 2177.09,4294.01 4343.47,513.08 2955.27,513.08 "/>
    <polygon class="fil2" points="2177.09,4294.01 2171.74,1873.84 1388.19,513.08 -0,513.08 "/>
    <polygon class="fil2" points="1876.3,513.08 2467.16,513.08 2171.74,0 "/>
    <polygon class="fil1" points="2467.16,513.08 1876.3,513.08 2171.74,1026.16 "/>
   </g>
   <g>
    <path class="fil2" d="M5611.59 2101.2l-693.21 -1566.06 366.04 0 500.98 1124.91 500.98 -1124.91 366.03 0 -691.16 1566.06 -349.66 0zm1155.56 -1566.06l345.58 0 0 1543.99 -345.58 0 0 -1543.99zm1153.53 1566.06l-693.21 -1566.06 366.03 0 500.99 1124.91 500.98 -1124.91 366.03 0 -691.16 1566.06 -349.66 0zm1523.64 -1588.11l349.66 0 691.16 1566.05 -366.03 0 -100.2 -224.98 -801.58 0 -100.2 224.98 -366.03 0 693.21 -1566.05zm-87.94 1030.06l523.48 0 -261.74 -588.92 -261.75 588.92zm2505.17 224.99l0 311 -1261.67 0 0 -1543.99 345.58 0 0 1232.99 916.09 0zm118.84 -1232.99l345.58 0 0 1543.99 -345.58 0 0 -1543.99zm1785.38 1232.99l0 311 -1294.39 0 0 -311 848.61 -921.99 -830.21 0 0 -311 1206.46 0 0 311 -828.17 921.99 897.69 0z"/>
    <path class="fil1" d="M5816.12 2935.58l0.58 2.61 9.31 18.36c35.07,53.87 151.02,99.51 282.65,151.3 285.7,112.42 633.74,249.37 633.74,640.22 0,171.88 -78.12,302.18 -195.01,393.05 -132.57,103.06 -315.59,152.9 -486.64,152.9 -138.71,0 -280.28,-26.16 -408.07,-82.54 -117.27,-51.74 -222.59,-128.96 -303.33,-234.82l-44.91 -58.91 341.87 -264.93 46.76 61.91c39.3,52.03 89.91,87.59 146.25,110.87 70.42,29.08 150.88,39.9 230.95,39.9 60.97,0 137.75,-12.16 189.61,-45.51 28.54,-18.36 48.46,-44.72 48.46,-81.33 0,-87.43 -152.49,-149.64 -324.98,-220 -252.85,-103.14 -540.61,-220.51 -593.25,-510.09l-16.13 -88.73 185.78 0 -167.13 -131.12 16.85 -49.88c41.57,-123.13 124.05,-216.05 229.9,-279.2 111.56,-66.57 248.92,-99.66 390.38,-99.66 117.82,0 235.59,24.76 344.66,69.85 110.45,45.65 211.95,112.03 295.52,194.55l51.15 50.48 -290.5 319.48 -56.96 -56.23c-48.85,-48.23 -104.74,-86.16 -165.21,-111.63 -58.52,-24.67 -121.99,-37.98 -188.2,-37.98 -63.74,0 -124.42,10.66 -162.64,39.76 -25.66,19.54 -42.08,51.01 -42.08,98.84 0,3.54 0.17,6.4 0.6,8.49zm1459.68 -462.46c126,-55.03 264.22,-82.56 402.82,-82.56 248.83,0 498.33,89.78 677.2,269.3 155.63,156.2 257.01,378.78 257.01,667.13 0,288.35 -101.38,510.92 -257.01,667.14 -178.87,179.53 -428.36,269.29 -677.2,269.29 -249.96,0 -499.89,-89.67 -679.05,-268.99 -156.06,-156.2 -257.55,-378.86 -257.55,-667.44 0,-65 5.08,-127.32 14.91,-186.88 10.02,-60.61 25.02,-117.44 44.67,-170.44l18.46 -49.82 248.46 0 -154.27 -161.5 43.75 -51.33c88.1,-103.37 197.43,-181.32 317.8,-233.9zm171.48 401.93c-62.5,28.47 -118.9,69.24 -163.93,122.24l-27.5 40.17c-26.26,38.37 -47.12,82.03 -61.16,130.91 -13.61,47.36 -21.01,100.21 -21.01,158.63 0,157.37 53.84,276.56 136.53,358.52 95.94,95.1 231.82,142.34 368.42,142.34 135.44,0 270.83,-47.34 366.56,-142.63 82.28,-81.91 135.99,-201 135.99,-358.23 0,-157.23 -53.71,-276.33 -135.99,-358.23 -95.73,-95.29 -231.12,-142.63 -366.56,-142.63 -80.07,0 -159.78,16.31 -231.34,48.92zm1775.51 -371.39l0 1165.19 -161.91 142.55 955.35 0 0 363.37 582.49 -1254.92 158.56 0 -228.74 -491.65 467.94 0 832.36 1797.6 -462.85 0 -107.23 -230.54 -693.64 0 -107.23 230.54 -1673.9 0c0,-476.07 0,-1119.17 0,-1797.6l438.8 0 0 75.46zm1689.15 749.3l-152.68 327.9 305.35 0 -152.67 -327.9zm988.63 -483.49l0 -341.28 603.02 0c228.89,0 397.34,83.86 504.35,206 66.35,75.74 108.49,165.89 126.38,259.83 17.85,93.67 11.66,191.18 -18.59,281.96 -40.77,122.34 -124.58,232.62 -251.4,305.36l515.39 744.44 -525.51 0 -450.34 -656.31 -64.51 0 0 656.31 -438.8 0 0 -1266.06 142.91 -114.79 -142.91 0 0 -75.46zm783.51 168.06c-24.83,-51.96 -84.69,-92.6 -180.49,-92.6l-164.22 0 0 307.79 164.22 0c96.2,0 155.92,-40.26 180.59,-91.84 9.35,-19.55 14.02,-40.67 14.01,-61.65 -0.01,-20.95 -4.74,-42.08 -14.11,-61.71z"/>
   </g>
  </g>
 </g>
</svg>
