<?xml version="1.0" encoding="UTF-8"?>
<!DOCTYPE svg PUBLIC "-//W3C//DTD SVG 1.1//EN" "http://www.w3.org/Graphics/SVG/1.1/DTD/svg11.dtd">
<!-- Creator: CorelDRAW -->
<svg xmlns="http://www.w3.org/2000/svg" xml:space="preserve" width="55.8822mm" height="28.181mm" version="1.1" style="shape-rendering:geometricPrecision; text-rendering:geometricPrecision; image-rendering:optimizeQuality; fill-rule:evenodd; clip-rule:evenodd"
viewBox="0 0 5574 2810.93"
 xmlns:xlink="http://www.w3.org/1999/xlink"
 xmlns:xodm="http://www.corel.com/coreldraw/odm/2003">
 <defs>
  <style type="text/css">
   <![CDATA[
    .fil1 {fill:#606062}
    .fil0 {fill:#205874}
   ]]>
  </style>
 </defs>
 <g id="Layer_x0020_1">
  <metadata id="CorelCorpID_0Corel-Layer"/>
  <g id="_1814647824">
   <path class="fil0" d="M1603.82 2810.92l-399.97 0 -0.79 0 -55.26 0c-9.13,-3.61 -8,-15.43 -8.79,-49.48l3.67 -1173.29 -1142.68 -1588.15 637.81 0c66.27,0 86.82,2.62 128.56,60.96l637.45 891.18 637.46 -891.18c41.74,-58.34 62.29,-60.96 128.56,-60.96l637.81 0 -1142.68 1588.15 3.67 1173.29c-0.79,34.05 0.33,45.88 -8.79,49.48l-55.26 0 -0.79 0z"/>
   <path class="fil1" d="M2832.53 755.01l2.32 2006.43c0.79,34.05 -0.34,45.87 8.79,49.48l55.26 0 0.79 0 400.69 0 0.79 0 55.25 0c9.12,-3.61 8,-15.43 8.8,-49.48l0 -2673.98 0 -35.57c-1.43,-36.46 -10.7,-52.64 -57.15,-51.86l-280.47 4.68 -14.79 0.24c-31.64,0.54 -30.46,9.99 -47.7,34.63l-434.84 621.13c-21.17,30.24 -14.76,59.95 26.25,59.38l241.74 -3.36c38.56,-0.55 34.15,2.25 34.28,38.28zm715.41 1297.11c0,253.5 45.29,465.38 315.04,650.38 98.3,67.41 219.2,108.42 338.76,108.42l718.47 0c119.55,0 240.45,-41.02 338.76,-108.42 269.74,-185 315.04,-396.88 315.04,-650.38l0 -1293.31c0,-253.5 -45.29,-465.38 -315.04,-650.37 -98.31,-67.42 -219.2,-108.43 -338.76,-108.43l-718.47 0c-119.55,0 -240.46,41.02 -338.76,108.43 -269.74,184.99 -315.04,396.87 -315.04,650.37l0 1293.31zm1501.03 -74.98c0,100.23 -30.43,189.33 -82.7,244 -53.73,56.22 -100.86,78.07 -175.29,85.9l0 0.66 -460.03 0 0 -0.66c-74.43,-7.83 -121.56,-29.68 -175.29,-85.9 -52.27,-54.67 -82.7,-143.76 -82.7,-244l0 -1143.35c0,-100.23 30.43,-189.33 82.7,-244.01 53.73,-56.21 100.86,-78.06 175.29,-85.89l0 -0.65 460.03 0 0 0.65c74.43,7.83 121.56,29.68 175.29,85.89 52.27,54.68 82.7,143.77 82.7,244.01l0 1143.35z"/>
  </g>
 </g>
</svg>
